<?xml version="1.0" encoding="UTF-8"?>
<svg width="16px" height="16px" viewBox="0 0 16 16" version="1.1" xmlns="http://www.w3.org/2000/svg" xmlns:xlink="http://www.w3.org/1999/xlink">
    <title>复制文件</title>
    <g id="我的" stroke="none" stroke-width="1" fill="none" fill-rule="evenodd">
        <g id="充值凭据" transform="translate(-329.000000, -113.000000)" fill-rule="nonzero">
            <g id="抢单" transform="translate(10.000000, 98.000000)">
                <g id="复制文件" transform="translate(319.000000, 15.000000)">
                    <rect id="矩形" fill="#000000" opacity="0" x="0" y="0" width="16" height="16"></rect>
                    <path d="M9.9780658,2.99900298 C10.2971087,2.99900298 10.5815886,3.06812894 10.8315055,3.20638084 C11.0814224,3.34463275 11.2967763,3.51478895 11.4775673,3.71684944 C11.6583583,3.91890993 11.7966102,4.13692256 11.892323,4.37088733 C11.9880359,4.6048521 12.0358923,4.81222996 12.0358923,4.99302092 L12.0358923,14.005982 C12.0358923,14.3143901 11.9747424,14.590894 11.8524427,14.8354935 C11.7301429,15.080093 11.5706215,15.2874709 11.3738784,15.4576271 C11.1771353,15.6277833 10.9564639,15.7607178 10.7118644,15.8564307 C10.4672649,15.9521436 10.2226653,16 9.9780658,16 L2.11365902,16 C1.91159853,16 1.69092721,15.9415088 1.45164506,15.8245264 C1.21236292,15.707544 0.989032906,15.55334 0.781655031,15.3619142 C0.574277156,15.1704885 0.401462266,14.9498172 0.263210359,14.6999003 C0.124958453,14.4499834 0.0558325,14.1974078 0.0558325,13.9421735 L0.0558325,5.05682952 C0.0558325,4.83349951 0.109006313,4.60219342 0.215353938,4.36291127 C0.321701563,4.12362911 0.459953474,3.90295779 0.630109672,3.70089731 C0.80026587,3.49883683 0.997008974,3.33133933 1.22033898,3.1984048 C1.44366899,3.06547027 1.67763377,2.99900298 1.9222333,2.99900298 L9.9780658,2.99900298 L9.9780658,2.99900298 Z M9.03688933,12.9690927 C9.31339315,12.9690927 9.55001661,12.8733799 9.74675972,12.6819541 C9.94350282,12.4905284 10.0418744,12.2565637 10.0418744,11.9800598 C10.0418744,11.703556 9.94350282,11.4669325 9.74675972,11.2701894 C9.55001661,11.0734463 9.31339315,10.9750748 9.03688933,10.9750748 L3.05483548,10.9750748 C2.77833166,10.9750748 2.5417082,11.0734463 2.34496509,11.2701894 C2.14822199,11.4669325 2.04985044,11.703556 2.04985044,11.9800598 C2.04985044,12.2565637 2.14822199,12.4905284 2.34496509,12.6819541 C2.5417082,12.8733799 2.77833166,12.9690927 3.05483548,12.9690927 L9.03688933,12.9690927 L9.03688933,12.9690927 Z M9.03688933,8.98105683 C9.31339315,8.98105683 9.55001661,8.88534397 9.74675972,8.69391825 C9.94350282,8.50249253 10.0418744,8.26852776 10.0418744,7.99202394 C10.0418744,7.71552011 9.94350282,7.47889665 9.74675972,7.28215355 C9.55001661,7.08541044 9.31339315,6.98703889 9.03688933,6.98703889 L3.05483548,6.98703889 C2.77833166,6.98703889 2.5417082,7.08541044 2.34496509,7.28215355 C2.14822199,7.47889665 2.04985044,7.71552011 2.04985044,7.99202394 C2.04985044,8.26852776 2.14822199,8.50249253 2.34496509,8.69391825 C2.5417082,8.88534397 2.77833166,8.98105683 3.05483548,8.98105683 L9.03688933,8.98105683 L9.03688933,8.98105683 Z M11.8604187,0 C12.3177135,0 12.7377866,0.135593219 13.1206381,0.406779656 C13.5034895,0.677966094 13.8358259,1.01296111 14.1176471,1.4117647 C14.3994683,1.8105683 14.6201396,2.24127617 14.779661,2.70388833 C14.9391825,3.16650048 15.0189432,3.58923229 15.0189432,3.97208373 L15.0189432,12.442672 C15.0189432,12.666002 14.9524759,12.8707212 14.8195414,13.0568295 C14.6866068,13.2429378 14.5244267,13.4024593 14.333001,13.5353938 C14.1415753,13.6683283 13.9341974,13.774676 13.7108674,13.8544367 C13.4875374,13.9341974 13.2801595,13.9740778 13.0887338,13.9740778 L13.0249252,13.9740778 L13.0249252,4.45064806 C12.9398471,3.71684946 12.7111997,3.15320705 12.3389831,2.75972084 C11.9667664,2.36623464 11.4722499,2.11100034 10.8554337,1.99401795 L3.07078764,1.99401795 C3.0814224,1.97274843 3.08673978,1.93552677 3.08673978,1.88235295 C3.08673978,1.6696577 3.15054835,1.45164507 3.2781655,1.22831506 C3.40578265,1.00498505 3.57328015,0.802924568 3.78065802,0.622133609 C3.98803588,0.441342651 4.21934196,0.292455979 4.47457627,0.175473594 C4.72981057,0.0584912083 4.98504486,0 5.24027916,0 L11.8604187,0 L11.8604187,0 Z" id="形状" fill="#999999"></path>
                </g>
            </g>
        </g>
    </g>
</svg>