<?xml version="1.0" encoding="utf-8"?>
<!-- Generator: Adobe Illustrator 25.4.1, SVG Export Plug-In . SVG Version: 6.00 Build 0)  -->
<svg version="1.1" id="图层_1" xmlns="http://www.w3.org/2000/svg" xmlns:xlink="http://www.w3.org/1999/xlink" x="0px" y="0px"
	 viewBox="0 0 24 24" style="enable-background:new 0 0 24 24;" xml:space="preserve">
<style type="text/css">
	.st0{fill:#999999;}
</style>
<path id="形状" class="st0" d="M18.8,15.6V19c0,0.2-0.1,0.3-0.3,0.3H5.5c-0.2,0-0.3-0.1-0.3-0.3v-3.4c0-0.1-0.1-0.2-0.2-0.2H3.8
	c-0.1,0-0.2,0.1-0.2,0.2v4C3.6,20.3,4.2,21,5,21H19c0.8,0,1.4-0.6,1.4-1.4v-4c0-0.1-0.1-0.2-0.2-0.2H19
	C18.9,15.3,18.8,15.4,18.8,15.6z M12.8,16.3V5.8l4.1,4.1c0.3,0.3,0.8,0.3,1.2,0c0.3-0.3,0.3-0.8,0-1.2l-5.5-5.5c0,0,0,0,0,0
	c0,0,0,0,0,0c0,0,0,0,0,0s0,0,0,0c0,0,0,0,0,0l0,0c0,0,0,0,0,0c0,0,0,0,0,0c0,0,0,0,0,0c0,0,0,0,0,0c0,0,0,0,0,0c0,0,0,0,0,0l0,0
	c0,0,0,0,0,0c0,0,0,0,0,0c0,0,0,0,0,0l0,0c0,0,0,0,0,0c0,0,0,0,0,0c0,0,0,0,0,0c0,0,0,0,0,0c0,0,0,0,0,0c0,0,0,0,0,0c0,0,0,0,0,0
	c0,0,0,0,0,0c0,0,0,0,0,0s0,0,0,0s0,0,0,0c0,0,0,0,0,0C12,3,12,3,12,3c0,0,0,0,0,0c0,0,0,0,0,0c0,0,0,0,0,0c0,0,0,0,0,0c0,0,0,0,0,0
	c0,0,0,0,0,0c0,0,0,0,0,0c0,0,0,0,0,0c0,0,0,0,0,0c0,0,0,0,0,0c0,0,0,0,0,0c0,0,0,0,0,0l0,0c0,0,0,0,0,0c0,0,0,0,0,0c0,0,0,0,0,0
	l0,0c0,0,0,0,0,0c0,0,0,0,0,0c0,0,0,0,0,0c0,0,0,0,0,0c0,0,0,0,0,0c0,0,0,0,0,0c0,0,0,0,0,0c0,0,0,0,0,0c0,0,0,0,0,0c0,0,0,0,0,0
	c0,0,0,0,0,0l0,0L6,8.7C5.6,9,5.6,9.5,6,9.9c0.3,0.3,0.8,0.3,1.2,0l4.1-4.1v10.5c0,0.5,0.4,0.8,0.8,0.8S12.8,16.8,12.8,16.3z"/>
</svg>
