<?xml version="1.0" encoding="utf-8"?>
<!-- Generator: Adobe Illustrator 25.4.1, SVG Export Plug-In . SVG Version: 6.00 Build 0)  -->
<svg version="1.1" id="图层_1" xmlns="http://www.w3.org/2000/svg" xmlns:xlink="http://www.w3.org/1999/xlink" x="0px" y="0px"
	 viewBox="0 0 30 30" style="enable-background:new 0 0 30 30;" xml:space="preserve">
<style type="text/css">
	.st0{opacity:5.000000e-02;fill:#232F3E;enable-background:new    ;}
	.st1{fill-opacity:0;}
	.st2{fill:#3874F6;}
	.st3{fill:#FBBB6A;}
</style>
<path id="路径" class="st0" d="M0,15c0,8.3,6.7,15,15,15s15-6.7,15-15S23.3,0,15,0S0,6.7,0,15z"/>
<g id="银行卡" transform="translate(8.181811, 8.001259)">
	<rect id="矩形_00000138544161688182788460000006163610357768302732_" x="0" y="0" class="st1" width="14" height="14"/>
	<path id="形状" class="st2" d="M0,11.2c0,0.7,0.6,1.3,1.3,1.3h11.5c0.7,0,1.3-0.6,1.3-1.3V6H0V11.2z M11.4,9.4h1v1.2h-1V9.4z
		 M10.1,9.4h1v1.2h-1V9.4z M8.8,9.4h1v1.2h-1V9.4z"/>
	<path id="路径_00000000199061246649284010000009222230889727461560_" class="st3" d="M12.7,1.4H1.3C0.6,1.4,0,2,0,2.7v1.4h14V2.7
		C14,2,13.4,1.4,12.7,1.4z"/>
</g>
</svg>
