<?xml version="1.0" encoding="utf-8"?>
<!-- Generator: Adobe Illustrator 27.0.0, SVG Export Plug-In . SVG Version: 6.00 Build 0)  -->
<svg version="1.1" id="图层_1" xmlns="http://www.w3.org/2000/svg" xmlns:xlink="http://www.w3.org/1999/xlink" x="0px" y="0px"
	 viewBox="0 0 30 30" style="enable-background:new 0 0 30 30;" xml:space="preserve">
<style type="text/css">
	.st0{opacity:5.000000e-02;fill:#232F3E;enable-background:new    ;}
	.st1{fill:#FFFFFF;}
	.st2{fill:#3874F6;}
</style>
<path id="路径" class="st0" d="M0,15c0,8.3,6.7,15,15,15s15-6.7,15-15S23.3,0,15,0S0,6.7,0,15z"/>
<path id="形状结合" class="st1" d="M14.6,13.3l2.2,6.1h-1.4L14.9,18h-2.2l-0.5,1.4h-1.4l2.2-6.1C13,13.3,14.6,13.3,14.6,13.3z
	 M13.8,14.4L13.8,14.4c-0.1,0.2-0.1,0.4-0.1,0.5l0,0L13,17h1.6l-0.7-2.1C13.8,14.8,13.8,14.6,13.8,14.4L13.8,14.4z"/>
<path class="st2" d="M15.3,13.2L15,11.5l-0.3,1.6c-0.3,0.1-0.7,0.2-0.9,0.5c-0.7,0.7-0.7,1.8,0,2.5c0.7,0.7,1.8,0.7,2.5,0
	c0.7-0.7,0.7-1.8,0-2.5C16,13.4,15.7,13.2,15.3,13.2L15.3,13.2z M19.6,19.5L19.6,19.5l-2.9-2.9c-0.3,0.3-0.7,0.5-1.1,0.6l1.1,3.9
	c-0.5,0.1-1.1,0.2-1.7,0.2c-0.6,0-1.1-0.1-1.7-0.2l1.1-3.9c-0.4-0.1-0.8-0.3-1.1-0.6l-2.9,2.9c-0.8-0.8-1.4-1.8-1.7-2.9l3.9-1.1
	c-0.1-0.4-0.1-0.8,0-1.2l-3.9-1.1c0.3-1.1,0.8-2.1,1.7-2.9l2.9,2.9c0.3-0.3,0.7-0.5,1.1-0.6l-1.1-3.9c0.5-0.1,1.1-0.2,1.7-0.2
	c0.6,0,1.1,0.1,1.7,0.2l-1.1,3.9c0.4,0.1,0.8,0.3,1.1,0.6l2.9-2.9c0.8,0.8,1.4,1.8,1.7,2.9l-3.9,1.1c0.1,0.4,0.1,0.8,0,1.2l3.9,1.1
	C21,17.7,20.4,18.7,19.6,19.5L19.6,19.5z M20.1,9.8c-1.4-1.4-3.2-2.1-5.1-2.1c-1.9,0-3.7,0.7-5.1,2.1c-1.4,1.4-2.1,3.2-2.1,5.1
	c0,1.9,0.7,3.7,2.1,5.1c1.4,1.4,3.2,2.1,5.1,2.1c1.9,0,3.7-0.7,5.1-2.1c1.4-1.4,2.1-3.2,2.1-5.1C22.2,13,21.5,11.2,20.1,9.8"/>
</svg>
