<?xml version="1.0" encoding="utf-8"?>
<!-- Generator: Adobe Illustrator 25.4.1, SVG Export Plug-In . SVG Version: 6.00 Build 0)  -->
<svg version="1.1" id="图层_1" xmlns="http://www.w3.org/2000/svg" xmlns:xlink="http://www.w3.org/1999/xlink" x="0px" y="0px"
	 viewBox="0 0 16 16" style="enable-background:new 0 0 16 16;" xml:space="preserve">
<style type="text/css">
	.st0{fill:#232F3E;}
</style>
<path id="形状" class="st0" d="M10,3c0.3,0,0.6,0.1,0.9,0.2s0.5,0.3,0.6,0.5c0.2,0.2,0.3,0.4,0.4,0.7C12,4.6,12,4.8,12,5v9
	c0,0.3-0.1,0.6-0.2,0.8c-0.1,0.2-0.3,0.5-0.5,0.6s-0.4,0.3-0.7,0.4C10.5,16,10.2,16,10,16H2.1c-0.2,0-0.4-0.1-0.7-0.2
	S1,15.6,0.8,15.4c-0.2-0.2-0.4-0.4-0.5-0.7s-0.2-0.5-0.2-0.8V5.1c0-0.2,0.1-0.5,0.2-0.7s0.2-0.5,0.4-0.7S1,3.3,1.2,3.2S1.7,3,1.9,3
	H10L10,3z M9,13c0.3,0,0.5-0.1,0.7-0.3C9.9,12.5,10,12.3,10,12c0-0.3-0.1-0.5-0.3-0.7S9.3,11,9,11h-6c-0.3,0-0.5,0.1-0.7,0.3
	C2.1,11.5,2,11.7,2,12c0,0.3,0.1,0.5,0.3,0.7C2.5,12.9,2.8,13,3.1,13H9L9,13z M9,9c0.3,0,0.5-0.1,0.7-0.3S10,8.3,10,8
	S9.9,7.5,9.7,7.3S9.3,7,9,7h-6C2.8,7,2.5,7.1,2.3,7.3C2.1,7.5,2,7.7,2,8s0.1,0.5,0.3,0.7C2.5,8.9,2.8,9,3.1,9H9L9,9z M11.9,0
	c0.5,0,0.9,0.1,1.3,0.4s0.7,0.6,1,1s0.5,0.8,0.7,1.3S15,3.6,15,4v8.5c0,0.2-0.1,0.4-0.2,0.6s-0.3,0.3-0.5,0.5
	c-0.2,0.1-0.4,0.2-0.6,0.3c-0.2,0.1-0.4,0.1-0.6,0.1H13V4.5c-0.1-0.7-0.3-1.3-0.7-1.7C12,2.4,11.5,2.1,10.9,2H3.1c0,0,0-0.1,0-0.1
	c0-0.2,0.1-0.4,0.2-0.7s0.3-0.4,0.5-0.6s0.4-0.3,0.7-0.4C4.7,0.1,5,0,5.2,0H11.9L11.9,0z"/>
</svg>
