<?xml version="1.0" encoding="utf-8"?>
<!-- Generator: Adobe Illustrator 25.4.1, SVG Export Plug-In . SVG Version: 6.00 Build 0)  -->
<svg version="1.1" id="图层_1" xmlns="http://www.w3.org/2000/svg" xmlns:xlink="http://www.w3.org/1999/xlink" x="0px" y="0px"
	 viewBox="0 0 30 30" style="enable-background:new 0 0 30 30;" xml:space="preserve">
<style type="text/css">
	.st0{opacity:5.000000e-02;fill:#232F3E;enable-background:new    ;}
	.st1{fill-opacity:0;}
	.st2{fill:#3874F6;}
	.st3{fill:#FFFFFF;}
</style>
<path id="路径" class="st0" d="M0,15c0,8.3,6.7,15,15,15s15-6.7,15-15S23.3,0,15,0S0,6.7,0,15z"/>
<g id="安全" transform="translate(7.181811, 7.001259)">
	<rect id="矩形_00000101101865061405726390000003188099179871345538_" x="0" y="0" class="st1" width="16" height="16"/>
	<path id="形状" class="st2" d="M14.5,3.4C12.4,3.3,8,1,8,1H7.9c0,0-4.3,2.3-6.4,2.4c-0.2,0.9,0.1,6.3,1.6,8.4
		c1,1.5,3.9,2.7,4.8,3.1c0,0,0.1,0.1,0.2,0c1.1-0.4,3.7-1.5,4.9-3.1C14.6,9.4,14.7,4.3,14.5,3.4z"/>
	<path id="路径_00000109734643672353364030000012585880503260701615_" class="st3" d="M10.6,7.5H8.5v1h2.1v0.8H8.5v1.9h-1V9.3H5.4
		V8.5h2.1v-1H5.4V6.7h1.7L6,4.8h1.1c0,0,0.9,1.6,0.9,1.7c0-0.2,0.9-1.7,0.9-1.7H10l-1.1,2h1.7C10.6,6.8,10.6,7.5,10.6,7.5z"/>
</g>
</svg>
