<?xml version="1.0" encoding="utf-8"?>
<!-- Generator: Adobe Illustrator 25.4.1, SVG Export Plug-In . SVG Version: 6.00 Build 0)  -->
<svg version="1.1" id="图层_1" xmlns="http://www.w3.org/2000/svg" xmlns:xlink="http://www.w3.org/1999/xlink" x="0px" y="0px"
	 viewBox="0 0 40 40" style="enable-background:new 0 0 40 40;" xml:space="preserve">
<style type="text/css">
	.st0{fill:#EEEEEE;}
</style>
<path id="形状" class="st0" d="M24.6,8.9h8.3l-8.8-8.8v8.3C24.1,8.6,24.4,8.9,24.6,8.9L24.6,8.9z M24.6,23.7H8.4
	c-0.6,0-1.1-0.5-1.1-1.1c0-0.6,0.5-1.1,1.1-1.1h16.8c0.5,0,0.9,0.4,1,0.9c1.6-0.9,3.4-1.5,5.3-1.5c0.5,0,1,0,1.4,0.1V11h-8.4
	C23.2,11,22,9.8,22,8.4V0H2.1C0.9,0,0,0.9,0,2.1v33.6c0,1.2,0.9,2.1,2.1,2.1h21c-1.3-1.8-2.1-3.9-2.1-6.3
	C21,28.4,22.4,25.6,24.6,23.7z M8.4,15.2h16.8c0.6,0,1.1,0.5,1.1,1.1c0,0.6-0.5,1.1-1.1,1.1H8.4c-0.6,0-1.1-0.5-1.1-1.1
	C7.4,15.7,7.8,15.2,8.4,15.2z M31.5,23.1c-4.6,0-8.4,3.8-8.4,8.4c0,4.6,3.8,8.4,8.4,8.4c4.7,0,8.4-3.8,8.4-8.5
	C40,26.9,36.2,23.1,31.5,23.1z M31.5,36.8c-0.6,0-1.1-0.5-1.1-1.1c0-0.6,0.5-1.1,1.1-1.1s1.1,0.5,1.1,1.1
	C32.6,36.3,32.1,36.8,31.5,36.8z M31.5,33.6c-0.6,0-1.1-5.7-1.1-6.3s0.5-1.1,1.1-1.1s1.1,0.5,1.1,1.1C32.6,27.9,32.1,33.6,31.5,33.6
	z"/>
</svg>
