<?xml version="1.0" encoding="utf-8"?>
<!-- Generator: Adobe Illustrator 25.4.1, SVG Export Plug-In . SVG Version: 6.00 Build 0)  -->
<svg version="1.1" id="图层_1" xmlns="http://www.w3.org/2000/svg" xmlns:xlink="http://www.w3.org/1999/xlink" x="0px" y="0px"
	 viewBox="0 0 30 30" style="enable-background:new 0 0 30 30;" xml:space="preserve">
<style type="text/css">
	.st0{opacity:5.000000e-02;fill:#232F3E;enable-background:new    ;}
	.st1{fill:#3874F6;}
	.st2{fill:#FFFFFF;}
</style>
<path id="路径" class="st0" d="M0,15c0,8.3,6.7,15,15,15s15-6.7,15-15S23.3,0,15,0S0,6.7,0,15z"/>
<g id="lock1" transform="translate(7.181811, 7.001259)">
	<path id="形状" class="st1" d="M11.7,6.1H5.4V3.9c0-0.8,1-1.6,2.1-1.6c1.2,0,2.1,0.8,2.1,1.6v0.7l0,0C9.7,5,10,5.3,10.4,5.3
		c0.4,0,0.8-0.3,0.8-0.7l0,0V3.9c0-1.8-1.7-3.2-3.8-3.2S3.6,2.1,3.6,3.9v2.3H3.3c-0.8,0-1.4,0.6-1.4,1.4V13c0,0.8,0.6,1.4,1.4,1.4
		h8.5c0.8,0,1.4-0.6,1.4-1.4V7.5C13.2,6.7,12.5,6.1,11.7,6.1z"/>
	<path id="路径_00000156556802135529101000000007565948152796989607_" class="st2" d="M8.2,11.2v0.6c0,0.4-0.3,0.7-0.7,0.7
		c-0.2,0-0.4-0.1-0.5-0.2c-0.1-0.1-0.2-0.3-0.2-0.5v-0.6c-0.6-0.3-0.9-0.8-0.9-1.4c0-0.9,0.7-1.6,1.7-1.6s1.6,0.7,1.6,1.6
		C9.1,10.4,8.8,10.9,8.2,11.2L8.2,11.2z"/>
</g>
</svg>
