<?xml version="1.0" encoding="utf-8"?>
<!-- Generator: Adobe Illustrator 25.4.1, SVG Export Plug-In . SVG Version: 6.00 Build 0)  -->
<svg version="1.1" id="图层_1" xmlns="http://www.w3.org/2000/svg" xmlns:xlink="http://www.w3.org/1999/xlink" x="0px" y="0px"
	 viewBox="0 0 16 16" style="enable-background:new 0 0 16 16;" xml:space="preserve">
<style type="text/css">
	.st0{fill:#389E0D;}
</style>
<path id="形状" class="st0" d="M5.2,6.3c-0.4,0-0.7,0.4-0.7,0.9S4.8,8,5.2,8c0.4,0,0.7-0.4,0.7-0.9S5.6,6.3,5.2,6.3L5.2,6.3z
	 M10.1,8c0.4,0,0.7-0.4,0.7-0.9s-0.3-0.9-0.7-0.9S9.4,6.6,9.4,7.1C9.4,7.6,9.8,8,10.1,8z M14.9,7C14.4,3.6,11.5,1,8,1
	C4.1,1,1,4.1,1,8s3.1,7,7,7s7-3.1,7-7 M8,13.6c-3.1,0-5.6-2.5-5.6-5.6S4.9,2.4,8,2.4c2.9,0,5.2,2.2,5.6,5c-0.7,1.2-1.9,2.1-3.3,2.5
	c-0.2-0.3-0.5-0.5-0.9-0.5H7.7c-0.6,0-1.1,0.5-1.1,1.1s0.5,1.1,1.1,1.1h1.8c0.2,0,0.3,0,0.4-0.1c1.3-0.2,2.5-0.8,3.5-1.6
	C12.5,12,10.5,13.6,8,13.6z"/>
</svg>
