<?xml version="1.0" encoding="utf-8"?>
<!-- Generator: Adobe Illustrator 25.4.1, SVG Export Plug-In . SVG Version: 6.00 Build 0)  -->
<svg version="1.1" id="图层_1" xmlns="http://www.w3.org/2000/svg" xmlns:xlink="http://www.w3.org/1999/xlink" x="0px" y="0px"
	 viewBox="0 0 30 30" style="enable-background:new 0 0 30 30;" xml:space="preserve">
<style type="text/css">
	.st0{opacity:5.000000e-02;fill:#232F3E;enable-background:new    ;}
	.st1{fill-opacity:0;}
	.st2{fill:#3874F6;}
	.st3{fill:#FFFFFF;}
</style>
<path id="路径" class="st0" d="M0,15c0,8.3,6.7,15,15,15s15-6.7,15-15S23.3,0,15,0S0,6.7,0,15z"/>
<g transform="translate(5.181811, 5.001259)">
	<rect id="矩形_00000181789393855182660500000012203876671676490678_" x="0" y="0" class="st1" width="20" height="20"/>
	<path id="形状" class="st2" d="M15.6,6V3.3H4.4V6h4.1v1.8C5.2,7.9,2.6,8.6,2.6,9.4c0,0.8,2.5,1.5,5.9,1.6v5.7h2.9V11
		c3.3-0.2,5.9-0.8,5.9-1.6s-2.5-1.5-5.9-1.6V6H15.6L15.6,6z"/>
	<path id="路径_00000070086696009216166700000012148991945321865659_" class="st3" d="M16.1,9.2c0,0.5-2,1-4.6,1.1h-0.2l0,0h-0.2
		l0,0c-0.1,0-0.2,0-0.4,0l0,0h-0.2l0,0h-0.1H9.6H9.5l0,0H9.3l0,0c-0.2,0-0.4,0-0.5,0l0,0H8.6C5.9,10.2,4,9.7,4,9.2s2-1,4.6-1.1v1.7
		c0.5,0,1,0,1.5,0s1,0,1.5,0V8.1C14.1,8.3,16.1,8.7,16.1,9.2L16.1,9.2z"/>
</g>
</svg>
