<?xml version="1.0" encoding="utf-8"?>
<!-- Generator: Adobe Illustrator 25.4.1, SVG Export Plug-In . SVG Version: 6.00 Build 0)  -->
<svg version="1.1" id="图层_1" xmlns="http://www.w3.org/2000/svg" xmlns:xlink="http://www.w3.org/1999/xlink" x="0px" y="0px"
	 viewBox="0 0 40 40" style="enable-background:new 0 0 40 40;" xml:space="preserve">
<style type="text/css">
	.st0{fill:#EEEEEE;}
</style>
<path id="形状" class="st0" d="M20,37.4c-9.6,0-17.4-7.8-17.4-17.4S10.3,2.6,20,2.6S37.4,10.4,37.4,20
	C37.4,29.6,29.6,37.4,20,37.4z M19.9,5.8C12.1,5.8,6,12.2,6,20s6.1,13.9,13.9,13.9S34.1,27.8,34.1,20S27.7,5.8,19.9,5.8z M27,21.7
	h-5.2v5.2c0,1-0.8,1.7-1.7,1.7h0c-1,0-1.7-0.8-1.7-1.7v-5.2H13c-1,0-1.7-0.8-1.7-1.7v0c0-1,0.8-1.7,1.7-1.7h5.2V13
	c0-1,0.8-1.7,1.7-1.7h0c1,0,1.7,0.8,1.7,1.7v5.2H27c1,0,1.7,0.8,1.7,1.7v0C28.7,20.9,27.9,21.7,27,21.7z"/>
</svg>
