<?xml version="1.0" encoding="utf-8"?>
<!-- Generator: Adobe Illustrator 25.4.1, SVG Export Plug-In . SVG Version: 6.00 Build 0)  -->
<svg version="1.1" id="图层_1" xmlns="http://www.w3.org/2000/svg" xmlns:xlink="http://www.w3.org/1999/xlink" x="0px" y="0px"
	 viewBox="0 0 30 30" style="enable-background:new 0 0 30 30;" xml:space="preserve">
<style type="text/css">
	.st0{opacity:5.000000e-02;fill:#232F3E;enable-background:new    ;}
	.st1{fill:#3874F6;}
	.st2{fill:#FFFFFF;}
</style>
<path id="路径" class="st0" d="M0.2,15c0,8.3,6.7,15,15,15s15-6.7,15-15s-6.7-15-15-15S0.2,6.7,0.2,15z"/>
<g id="团队规模" transform="translate(7.181811, 7.001259)">
	<path id="路径_00000022538203223105397040000004892179872405317760_" class="st1" d="M0,14.9C-0.1,12,1.6,9.4,4.3,8.4
		c-1.8-1-2.6-3.1-2.1-5.1S4.5,0,6.5,0s3.8,1.4,4.3,3.3s-0.3,4-2.1,5.1c2.7,1,4.4,3.6,4.2,6.5c0.1,0.4-0.1,0.7-0.4,1
		c-0.3,0.2-0.7,0.2-1,0.1C11.2,15.7,11,15.4,11,15h0c0.2-1.7-0.6-3.4-2.1-4.3c-1.5-0.9-3.3-0.9-4.8,0C2.6,11.6,1.8,13.3,2,15h0
		c0,0.6-0.4,1-1,1s-1-0.4-1-1h14c0-0.2,0-0.3,0-0.5c0-2.6-1.4-5.1-3.7-6.4c0.1,0,0.2,0,0.3,0.1c0.9-1,1.3-2.3,1.3-3.6
		C12,2.7,11.1,1,9.7,0c2,0.1,3.7,1.5,4.2,3.4s-0.4,4-2.1,5c2.7,1,4.4,3.6,4.2,6.5c0.1,0.4-0.1,0.7-0.4,1c-0.3,0.2-0.7,0.2-1,0.1
		C14.2,15.7,14,15.4,14,15L0,15L0,14.9z"/>
	<path id="路径_00000167395761703695322760000016857871850919191741_" class="st2" d="M4,4.5C4,3.1,5.1,2,6.5,2S9,3.1,9,4.5
		S7.9,7,6.5,7S4,5.9,4,4.5z"/>
</g>
</svg>
