<?xml version="1.0" encoding="UTF-8"?>
<svg width="22px" height="22px" viewBox="0 0 22 22" version="1.1" xmlns="http://www.w3.org/2000/svg" xmlns:xlink="http://www.w3.org/1999/xlink">
    <title>关闭</title>
    <g id="6.15新增" stroke="none" stroke-width="1" fill="none" fill-rule="evenodd">
        <g id="刷单首页-公告" transform="translate(-343.000000, -290.000000)" fill="#5E6673" fill-rule="nonzero">
            <g id="关闭" transform="translate(343.000000, 290.000000)">
                <rect id="矩形" opacity="0" x="0" y="0" width="22" height="22"></rect>
                <path d="M11,2.2 C6.1398942,2.2 2.2,6.1398942 2.2,11 C2.2,15.8601058 6.1398942,19.8 11,19.8 C15.8601058,19.8 19.8,15.8601058 19.8,11 C19.8,6.1398942 15.8601058,2.2 11,2.2 L11,2.2 Z M14.894,13.332 C15.3253344,13.7633344 15.3253344,14.4626656 14.894,14.894 C14.4626656,15.3253344 13.7633344,15.3253344 13.332,14.894 L11,12.551 L8.668,14.894 C8.23666561,15.3253344 7.5373344,15.3253344 7.10600001,14.894 C6.67466563,14.4626656 6.67466562,13.7633344 7.106,13.332 L9.449,11 L7.106,8.668 C6.67466561,8.23666561 6.67466561,7.53733439 7.106,7.106 C7.53733439,6.67466561 8.23666561,6.67466561 8.668,7.106 L11,9.449 L13.332,7.106 C13.7633344,6.67466561 14.4626656,6.67466561 14.894,7.106 C15.3253344,7.53733439 15.3253344,8.23666561 14.894,8.668 L12.551,11 L14.894,13.332 Z" id="形状"></path>
            </g>
        </g>
    </g>
</svg>