<?xml version="1.0" encoding="utf-8"?>
<!-- Generator: Adobe Illustrator 25.4.1, SVG Export Plug-In . SVG Version: 6.00 Build 0)  -->
<svg version="1.1" id="图层_1" xmlns="http://www.w3.org/2000/svg" xmlns:xlink="http://www.w3.org/1999/xlink" x="0px" y="0px"
	 viewBox="0 0 30 30" style="enable-background:new 0 0 30 30;" xml:space="preserve">
<style type="text/css">
	.st0{fill:#FF4D4F;}
</style>
<path class="st0" d="M15,0C6.7,0,0,6.7,0,15s6.7,15,15,15s15-6.7,15-15S23.3,0,15,0z M20.4,19.3c0.4,0.3,0.4,0.9,0,1.3
	c-0.3,0.4-0.9,0.4-1.3,0L15,16.5l-4.1,4.1c-0.4,0.4-1,0.4-1.4,0c-0.4-0.4-0.4-1,0-1.4l4.1-4.1L9.5,11c-0.4-0.4-0.4-1,0-1.4
	c0.4-0.4,1-0.4,1.4,0l4.1,4.1l4-4.1c0.4-0.4,1-0.4,1.4,0c0.4,0.3,0.4,0.9,0,1.3L16.3,15L20.4,19.3z"/>
</svg>
