<?xml version="1.0" encoding="utf-8"?>
<!-- Generator: Adobe Illustrator 25.4.1, SVG Export Plug-In . SVG Version: 6.00 Build 0)  -->
<svg version="1.1" id="图层_1" xmlns="http://www.w3.org/2000/svg" xmlns:xlink="http://www.w3.org/1999/xlink" x="0px" y="0px"
	 viewBox="0 0 20 20" style="enable-background:new 0 0 20 20;" xml:space="preserve">
<style type="text/css">
	.st0{fill:#232F3E;}
</style>
<path id="形状" class="st0" d="M4.7,11.4c0,0.8,0.1,1.6,0.4,2.3C6,11,8.5,9.1,11.4,9.1v0.8c0,1.1,1.2,1.7,2.1,1l4.1-3.2
	c0.7-0.5,0.7-1.5,0-2.1l-4.1-3.2c-0.9-0.7-2.1-0.1-2.1,1v0.9C7.7,4.5,4.7,7.5,4.7,11.4z M17.4,10.8c-0.5,0-0.9,0.4-0.9,0.9v2.6
	c0,0.8-0.6,1.4-1.4,1.4H5c-0.8,0-1.4-0.6-1.4-1.4V6.9c0-0.8,0.6-1.4,1.4-1.4h1c0.5,0,0.9-0.4,0.9-0.9S6.5,3.6,6,3.6H5
	c-1.8,0-3.3,1.5-3.3,3.3v7.4c0,1.8,1.5,3.3,3.3,3.3h10c1.8,0,3.3-1.5,3.3-3.3v-2.6C18.3,11.2,17.9,10.8,17.4,10.8z"/>
</svg>
