<?xml version="1.0" encoding="utf-8"?>
<!-- Generator: Adobe Illustrator 25.4.1, SVG Export Plug-In . SVG Version: 6.00 Build 0)  -->
<svg version="1.1" id="图层_1" xmlns="http://www.w3.org/2000/svg" xmlns:xlink="http://www.w3.org/1999/xlink" x="0px" y="0px"
	 viewBox="0 0 2424 639" style="enable-background:new 0 0 2424 639;" xml:space="preserve">
<style type="text/css">
	.st0{fill:#FFFFFF;}
	.st1{fill-rule:evenodd;clip-rule:evenodd;fill:#FFFFFF;}
	.st2{fill:#091723;}
	.st3{fill:#232F3E;}
	.st4{fill:#293B4F;}
	.st5{fill:#FBBB6A;}
</style>
<g>
	<path class="st0" d="M936.31,301.56c-17.88,10.32-39.85,15.48-65.92,15.48c-29.14,0-52.14-8.19-68.99-24.57
		c-16.85-16.38-25.28-38.79-25.28-67.22c0-28.83,9.27-52.28,27.82-70.35c18.55-18.08,42.98-27.11,73.31-27.11
		c19.53,0,36.58,2.76,51.16,8.27v36.98c-14.18-8.27-31.5-12.4-51.98-12.4c-17.64,0-31.94,5.75-42.89,17.25
		c-10.95,11.5-16.42,26.66-16.42,45.48c0,19.14,4.94,34.06,14.83,44.78c9.88,10.71,23.37,16.07,40.46,16.07
		c10.16,0,18.47-1.58,24.93-4.73V241.9h-36.98v-31.31h75.96V301.56z"/>
	<path class="st0" d="M1002.23,222.64c0,17.8,4.29,32.35,12.88,43.65c8.58,11.3,20.36,16.95,35.32,16.95
		c15.28,0,27.17-5.41,35.68-16.24c8.51-10.83,12.76-25.38,12.76-43.65c0-19.06-4.13-34.12-12.4-45.19
		c-8.27-11.07-19.93-16.6-34.97-16.6c-15.28,0-27.31,5.67-36.09,17.01C1006.62,189.92,1002.23,204.6,1002.23,222.64z M961.24,224.77
		c0-28.67,8.37-52,25.1-70c16.74-18,38.85-27,66.34-27c26.15,0,47.2,8.7,63.15,26.11c15.95,17.41,23.92,39.77,23.92,67.1
		c0,28.51-8.29,51.65-24.87,69.41c-16.58,17.76-38.3,26.64-65.15,26.64c-26.23,0-47.53-8.6-63.91-25.81
		C969.43,274.01,961.24,251.86,961.24,224.77z"/>
	<polygon class="st0" points="1278.09,313.85 1170.7,313.85 1170.7,130.85 1209.69,130.85 1209.69,281.95 1278.09,281.95 	"/>
	<path class="st0" d="M1342.01,162.74v119.2h21.27c18.51,0,33.04-5.51,43.59-16.54s15.83-25.95,15.83-44.78
		c0-18.19-5.51-32.39-16.54-42.59c-11.03-10.2-25.36-15.3-43-15.3H1342.01z M1303.02,313.85v-183h63.21
		c64.98,0,97.47,29.73,97.47,89.2c0,28.28-9.1,50.98-27.29,68.11c-18.19,17.13-41.66,25.7-70.41,25.7H1303.02z"/>
	<polygon class="st0" points="1602.86,313.85 1494.53,313.85 1494.53,130.85 1598.61,130.85 1598.61,162.74 1533.51,162.74 
		1533.51,205.87 1594,205.87 1594,237.65 1533.51,237.65 1533.51,281.95 1602.86,281.95 	"/>
	<path class="st0" d="M1795.55,313.85h-39.93l-77.5-118.38c-4.02-6.14-6.93-11.11-8.74-14.89h-0.59c0.71,6.3,1.06,16.03,1.06,29.18
		v104.08h-36.98v-183h42.53l74.66,115.07c4.96,7.64,8,12.48,9.1,14.53h0.59c-0.79-4.41-1.18-12.84-1.18-25.28V130.85h36.98V313.85z"
		/>
	<path class="st0" d="M2003.48,241.78l-20.79-63.44c-1.34-4.02-2.28-9.33-2.84-15.95h-1.06c-0.47,5.36-1.54,10.51-3.19,15.48
		l-20.91,63.91H2003.48z M2068.93,313.85h-42.53l-13.71-41.94h-66.51l-13.47,41.94h-42.29l66.98-183h45.84L2068.93,313.85z"/>
	<path class="st0" d="M2254.77,313.85h-39.93l-77.5-118.38c-4.02-6.14-6.93-11.11-8.74-14.89H2128c0.71,6.3,1.06,16.03,1.06,29.18
		v104.08h-36.98v-183h42.53l74.67,115.07c4.96,7.64,7.99,12.48,9.1,14.53h0.59c-0.79-4.41-1.18-12.84-1.18-25.28V130.85h36.98
		V313.85z"/>
	<polygon class="st0" points="2423.59,162.74 2371.37,162.74 2371.37,313.85 2332.27,313.85 2332.27,162.74 2280.17,162.74 
		2280.17,130.85 2423.59,130.85 	"/>
	<path class="st0" d="M800.58,445.98v23.08h9.96c3.85,0,6.98-1.13,9.39-3.38s3.61-5.2,3.61-8.86c0-3.4-1.1-6.06-3.29-7.97
		c-2.19-1.91-5.39-2.87-9.58-2.87H800.58z M839.87,503.95h-9.96l-10.84-18.14c-2.17-3.63-4.15-6.1-5.95-7.4
		c-1.8-1.31-3.95-1.96-6.46-1.96h-6.08v27.51h-8.44v-65.36h19.92c6.36,0,11.34,1.53,14.94,4.6c3.6,3.07,5.4,7.36,5.4,12.87
		c0,9.06-4.84,14.94-14.51,17.64v0.21c1.8,0.76,3.35,1.84,4.66,3.25c1.31,1.41,3,3.81,5.08,7.21L839.87,503.95z"/>
	<polygon class="st0" points="883.7,503.95 848.56,503.95 848.56,438.59 882.23,438.59 882.23,446.11 857,446.11 857,467.03 
		880.37,467.03 880.37,474.5 857,474.5 857,496.48 883.7,496.48 	"/>
	<path class="st0" d="M893.03,491.67c2,1.74,4.67,3.18,8.02,4.3c3.35,1.13,6.53,1.69,9.54,1.69c9.17,0,13.75-3.26,13.75-9.79
		c0-1.83-0.49-3.47-1.48-4.94c-0.98-1.46-2.33-2.76-4.05-3.88s-4.94-2.86-9.66-5.19c-6.55-3.26-10.87-6.29-12.95-9.09
		c-2.08-2.8-3.12-6-3.12-9.6c0-5.43,2.18-9.73,6.54-12.91c4.36-3.18,9.86-4.77,16.5-4.77c6.5,0,11.27,0.79,14.3,2.36v9.2
		c-3.94-2.73-8.92-4.09-14.94-4.09c-3.99,0-7.25,0.84-9.77,2.51c-2.52,1.67-3.78,4-3.78,6.98c0,2.64,0.87,4.8,2.62,6.46
		s5.53,3.92,11.35,6.79c6.41,3.07,10.9,6.13,13.46,9.2c2.56,3.07,3.84,6.51,3.84,10.34c0,5.74-2.08,10.14-6.24,13.21
		c-4.16,3.07-9.94,4.6-17.34,4.6c-2.59,0-5.6-0.36-9.05-1.08c-3.45-0.72-5.96-1.61-7.53-2.68V491.67z"/>
	<polygon class="st0" points="985.43,446.11 966.57,446.11 966.57,503.95 958.09,503.95 958.09,446.11 939.31,446.11 939.31,438.59 
		985.43,438.59 	"/>
	<path class="st0" d="M1053.78,478.68l-9.87-27.17c-0.31-0.87-0.65-2.39-1.01-4.56h-0.21c-0.31,1.97-0.66,3.49-1.05,4.56
		l-9.79,27.17H1053.78z M1072.39,503.95h-9.32l-6.67-17.89h-27.21l-6.29,17.89h-9.32l24.89-65.36h9.03L1072.39,503.95z"/>
	<path class="st0" d="M1078.81,491.67c2,1.74,4.67,3.18,8.02,4.3c3.35,1.13,6.53,1.69,9.54,1.69c9.17,0,13.76-3.26,13.76-9.79
		c0-1.83-0.49-3.47-1.48-4.94c-0.98-1.46-2.33-2.76-4.05-3.88c-1.72-1.13-4.94-2.86-9.66-5.19c-6.55-3.26-10.87-6.29-12.95-9.09
		c-2.08-2.8-3.12-6-3.12-9.6c0-5.43,2.18-9.73,6.54-12.91s9.86-4.77,16.5-4.77c6.5,0,11.27,0.79,14.3,2.36v9.2
		c-3.94-2.73-8.92-4.09-14.94-4.09c-3.99,0-7.25,0.84-9.77,2.51c-2.52,1.67-3.78,4-3.78,6.98c0,2.64,0.87,4.8,2.62,6.46
		c1.74,1.66,5.53,3.92,11.35,6.79c6.41,3.07,10.9,6.13,13.46,9.2c2.56,3.07,3.84,6.51,3.84,10.34c0,5.74-2.08,10.14-6.24,13.21
		c-4.16,3.07-9.94,4.6-17.34,4.6c-2.59,0-5.6-0.36-9.05-1.08c-3.45-0.72-5.96-1.61-7.53-2.68V491.67z"/>
	<path class="st0" d="M1128.68,491.67c2,1.74,4.67,3.18,8.02,4.3c3.35,1.13,6.53,1.69,9.54,1.69c9.17,0,13.76-3.26,13.76-9.79
		c0-1.83-0.49-3.47-1.48-4.94c-0.98-1.46-2.33-2.76-4.05-3.88c-1.72-1.13-4.94-2.86-9.66-5.19c-6.55-3.26-10.87-6.29-12.95-9.09
		c-2.08-2.8-3.12-6-3.12-9.6c0-5.43,2.18-9.73,6.54-12.91s9.86-4.77,16.5-4.77c6.5,0,11.27,0.79,14.3,2.36v9.2
		c-3.94-2.73-8.92-4.09-14.94-4.09c-3.99,0-7.25,0.84-9.77,2.51c-2.52,1.67-3.78,4-3.78,6.98c0,2.64,0.87,4.8,2.62,6.46
		c1.74,1.66,5.53,3.92,11.35,6.79c6.41,3.07,10.9,6.13,13.46,9.2c2.56,3.07,3.84,6.51,3.84,10.34c0,5.74-2.08,10.14-6.24,13.21
		c-4.16,3.07-9.94,4.6-17.34,4.6c-2.59,0-5.6-0.36-9.05-1.08c-3.45-0.72-5.96-1.61-7.53-2.68V491.67z"/>
	<path class="st0" d="M1230.03,477.33c0,18.48-8.38,27.72-25.15,27.72c-16.06,0-24.09-8.92-24.09-26.75v-39.7h8.44v39.32
		c0,13.08,5.49,19.62,16.46,19.62c10.6,0,15.91-6.33,15.91-18.99v-39.96h8.44V477.33z"/>
	<path class="st0" d="M1254.54,445.98v23.08h9.96c3.85,0,6.98-1.13,9.39-3.38c2.41-2.25,3.61-5.2,3.61-8.86
		c0-3.4-1.1-6.06-3.29-7.97c-2.19-1.91-5.39-2.87-9.58-2.87H1254.54z M1293.82,503.95h-9.96l-10.84-18.14
		c-2.17-3.63-4.15-6.1-5.95-7.4c-1.8-1.31-3.95-1.96-6.46-1.96h-6.08v27.51h-8.44v-65.36h19.92c6.36,0,11.34,1.53,14.94,4.6
		c3.6,3.07,5.4,7.36,5.4,12.87c0,9.06-4.84,14.94-14.51,17.64v0.21c1.8,0.76,3.35,1.84,4.66,3.25c1.31,1.41,3,3.81,5.08,7.21
		L1293.82,503.95z"/>
	<polygon class="st0" points="1337.66,503.95 1302.51,503.95 1302.51,438.59 1336.18,438.59 1336.18,446.11 1310.95,446.11 
		1310.95,467.03 1334.33,467.03 1334.33,474.5 1310.95,474.5 1310.95,496.48 1337.66,496.48 	"/>
	<path class="st0" d="M1358.46,446.11v50.38h9.49c8.3,0,14.77-2.26,19.43-6.79c4.66-4.53,6.98-10.87,6.98-19.03
		c0-8.16-2.39-14.29-7.17-18.4c-4.78-4.11-11.07-6.16-18.86-6.16H1358.46z M1350.02,503.95v-65.36h18.65c9.9,0,18.14,2.88,24.7,8.65
		c6.57,5.77,9.85,13.5,9.85,23.21c0,10.13-3.28,18.24-9.85,24.35c-6.57,6.1-15.03,9.16-25.38,9.16H1350.02z"/>
	<path class="st0" d="M1449.85,446.02v26.08h7.81c5.15,0,9.06-1.16,11.73-3.48c2.67-2.32,4.01-5.65,4.01-9.98
		c0-8.41-4.98-12.62-14.94-12.62H1449.85z M1449.85,479.52v24.43h-8.44v-65.36h18.56c7.06,0,12.54,1.7,16.43,5.11
		c3.9,3.4,5.84,8.27,5.84,14.6c0,6.41-2.28,11.61-6.84,15.59c-4.56,3.98-10.25,5.86-17.09,5.63H1449.85z"/>
	<polygon class="st0" points="1528.75,503.95 1494.28,503.95 1494.28,438.59 1502.72,438.59 1502.72,496.48 1528.75,496.48 	"/>
	<path class="st0" d="M1571.37,478.68l-9.87-27.17c-0.31-0.87-0.65-2.39-1.01-4.56h-0.21c-0.31,1.97-0.66,3.49-1.05,4.56
		l-9.79,27.17H1571.37z M1589.98,503.95h-9.32l-6.67-17.89h-27.21l-6.29,17.89h-9.32l24.89-65.36h9.03L1589.98,503.95z"/>
	<polygon class="st0" points="1638.92,446.11 1620.06,446.11 1620.06,503.95 1611.58,503.95 1611.58,446.11 1592.8,446.11 
		1592.8,438.59 1638.92,438.59 	"/>
	<polygon class="st0" points="1682.63,446.11 1657.4,446.11 1657.4,467.96 1680.78,467.96 1680.78,475.39 1657.4,475.39 
		1657.4,503.95 1648.96,503.95 1648.96,438.59 1682.63,438.59 	"/>
	<path class="st0" d="M1699.51,471.38c0,7.9,2.02,14.24,6.05,19.01c4.04,4.77,9.3,7.15,15.8,7.15c6.98,0,12.45-2.29,16.43-6.86
		c3.98-4.57,5.97-10.96,5.97-19.18c0-8.44-1.95-14.95-5.84-19.54c-3.89-4.58-9.23-6.88-16.01-6.88c-6.67,0-12.07,2.42-16.2,7.26
		C1701.58,457.19,1699.51,463.53,1699.51,471.38z M1690.65,472.05c0-10.55,2.86-18.94,8.57-25.19c5.71-6.24,13.45-9.37,23.21-9.37
		c9.09,0,16.4,3.05,21.94,9.16c5.54,6.1,8.31,14.05,8.31,23.84c0,10.6-2.84,19.02-8.52,25.23c-5.68,6.22-13.28,9.32-22.78,9.32
		c-9.28,0-16.72-3.05-22.32-9.16C1693.45,489.79,1690.65,481.84,1690.65,472.05z"/>
	<path class="st0" d="M1773.73,445.98v23.08h9.96c3.85,0,6.98-1.13,9.39-3.38c2.41-2.25,3.61-5.2,3.61-8.86
		c0-3.4-1.1-6.06-3.29-7.97c-2.2-1.91-5.39-2.87-9.58-2.87H1773.73z M1813.01,503.95h-9.96l-10.84-18.14
		c-2.16-3.63-4.15-6.1-5.95-7.4c-1.8-1.31-3.95-1.96-6.46-1.96h-6.08v27.51h-8.44v-65.36h19.92c6.36,0,11.34,1.53,14.94,4.6
		c3.6,3.07,5.4,7.36,5.4,12.87c0,9.06-4.84,14.94-14.52,17.64v0.21c1.8,0.76,3.35,1.84,4.66,3.25c1.31,1.41,3,3.81,5.08,7.21
		L1813.01,503.95z"/>
	<path class="st0" d="M1880.81,503.95v-43.29c0-3.57,0.21-7.86,0.63-12.87h-0.21c-0.73,3.15-1.38,5.34-1.94,6.58l-21.56,49.58h-4.68
		l-21.52-49.2c-0.51-1.13-1.15-3.45-1.94-6.96h-0.25c0.28,3.04,0.42,7.45,0.42,13.25v42.91h-8.06v-65.36h11.43l19.28,44.81
		c1.46,3.43,2.43,6.1,2.91,8.02h0.3c1.46-4.02,2.49-6.75,3.08-8.19l19.62-44.64h10.89v65.36H1880.81z"/>
</g>
<g>
	<path class="st1" d="M163.06,0.02H474.2c90.44,0,163.76,73.32,163.76,163.76v311.15c0,90.44-73.32,163.76-163.76,163.76H163.06
		C72.61,638.69-0.7,565.37-0.7,474.93V163.78C-0.7,73.34,72.61,0.02,163.06,0.02z"/>
	<g>
		<g>
			<path class="st2" d="M118.79,128.95h392.93v309.61H119.13L118.79,128.95z M118.79,128.95"/>
			<path class="st3" d="M98.47,181.46v327.55c0,15.92,12.87,24.73,28.79,24.73h375.99c15.92,0,28.79-8.81,28.79-24.73V181.46
				C532.04,181.8,98.8,181.46,98.47,181.46L98.47,181.46z M159.44,156.38l-40.65-27.43v38.97h40.65L159.44,156.38z M511.72,128.95
				l-40.65,27.1v11.87h40.65V128.95z M511.72,128.95"/>
			<path class="st4" d="M159.44,181.46v-25.41l-61.31,25.41H159.44z M471.07,156.05v25.41h61.65L471.07,156.05z M471.07,156.05"/>
			<path class="st2" d="M200.79,192.01c-10.16,0-18.63,8.47-18.63,18.63s8.13,18.63,18.63,18.63c10.16,0,18.63-8.47,18.63-18.63
				C219.76,200.48,211.29,192.01,200.79,192.01L200.79,192.01z M427.74,192.01c-10.16,0-18.63,8.47-18.63,18.63
				s8.13,18.63,18.63,18.63c10.16,0,18.63-8.47,18.63-18.63C446.71,200.48,438.24,192.01,427.74,192.01L427.74,192.01z
				 M427.74,192.01"/>
			<path class="st5" d="M314.61,64.69c-67.41,0-121.95,61.25-121.95,136.76c0,5.26,3.73,9.4,8.47,9.4c4.75,0,8.47-4.14,8.47-9.4
				c0-65,47.09-117.98,105-117.98c57.92,0,105.01,52.98,105.01,117.98c0,5.26,3.73,9.4,8.47,9.4c4.75,0,8.47-4.14,8.47-9.4
				C436.55,125.93,381.67,64.69,314.61,64.69L314.61,64.69z M314.61,64.69"/>
		</g>
		<g>
			<path class="st5" d="M405.22,334.45c-18.14-19.05-49.36-26.4-49.36-26.4c-6.91-23.77-17.51-39.01-34.35-64.71
				s-45.5-32.84-45.5-32.84s-28.55-1.95-25.52,17.57s29.17,12.66,29.17,12.66c26.47,1.52,71.1,66.92,71.1,66.92
				c-9.9-3.86-42.75,0.44-42.75,0.44s-34.63-35.59-55.56-33.07c-17.28,2.08-15.1,17.33-13.87,21.9s15.46,13.64,19.73,7.06
				c4.26-6.58,16.7-4.04,16.7-4.04s22.34,6.4,24.57,10.86c-39.77,11.2-75.99,46.24-75.99,46.24
				c-64.88,60.07,26.19,96.94,26.19,96.94c19.9-5.43,39.41-33.74,39.41-33.74c3.35,22.18-25,41.44-25,41.44
				c52.92,27.99,127.45,31.14,154.52-28.08S405.22,334.45,405.22,334.45z M320.64,390.49c-15.41,1.86-29.41-9.13-31.27-24.54
				c-1.86-15.41,9.13-29.41,24.54-31.27s29.41,9.13,31.27,24.54C347.04,374.63,336.05,388.63,320.64,390.49z"/>
			<circle class="st5" cx="310.57" cy="354.02" r="9.58"/>
		</g>
	</g>
</g>
</svg>
