<?xml version="1.0" encoding="utf-8"?>
<!-- Generator: Adobe Illustrator 25.4.1, SVG Export Plug-In . SVG Version: 6.00 Build 0)  -->
<svg version="1.1" id="图层_1" xmlns="http://www.w3.org/2000/svg" xmlns:xlink="http://www.w3.org/1999/xlink" x="0px" y="0px"
	 viewBox="0 0 30 30" style="enable-background:new 0 0 30 30;" xml:space="preserve">
<style type="text/css">
	.st0{fill:#232F3E;}
</style>
<path id="形状" class="st0" d="M12.5,17.3l-3,3.3l1.3,1.1l3-3.3L12.5,17.3z M15.1,19.5l-3,3.6l1.3,1.1l3-3.6L15.1,19.5z
	 M16.3,26.7c5.3-6.4,8.4-10.1,9.2-11.3c1.5-2.2,1.4-3.6-0.5-5.4c-0.5-0.4-1-0.9-1.5-1.3c-0.6-0.5-2.5-2-2.8-2.3
	c-1.5-1.3-3.3-1.2-4.7,0.4c-0.6,0.8-3.8,4.5-9.6,11.1l1.8,1.6c5.8-6.6,9-10.3,9.6-11.1c0.4-0.5,0.8-0.5,1.3-0.1
	c0.3,0.3,2.2,1.8,2.8,2.3c0.5,0.4,0.9,0.8,1.3,1.2c1,1,1,1.1,0.2,2.3c-0.7,1.1-3.8,4.8-9.1,11.1L16.3,26.7L16.3,26.7z M20.3,4.5
	l5.4,4.6l1.5-1.8l-5.4-4.6L20.3,4.5z M7.7,14.8c-0.1-0.1-0.3-0.3-0.6-0.6c0,0-0.1-0.1-0.2-0.2c0,0-0.1-0.1-0.1-0.1
	c-0.2-0.2-0.2-0.3,0.1-0.6c0.8-1,2.8-3.3,3.8-4.4c0.4-0.5,0.6-0.5,1.1-0.1c0.7,0.5,1.3,1.1,1.8,1.7L15.5,9c-0.7-0.8-1.4-1.4-2.2-2
	C11.8,5.8,10.2,6,9,7.3c-1,1.1-3.1,3.4-3.9,4.5c-1,1.3-0.9,2.5-0.1,3.6c0.1,0.1,0.2,0.2,0.3,0.3c0.1,0.1,0.2,0.2,0.2,0.2
	c0.3,0.3,0.5,0.5,0.7,0.7L7.7,14.8z M6.8,4.3L3,8.5l1.8,1.6l3.8-4.2L6.8,4.3z"/>
</svg>
