<?xml version="1.0" encoding="utf-8"?>
<!-- Generator: Adobe Illustrator 25.4.1, SVG Export Plug-In . SVG Version: 6.00 Build 0)  -->
<svg version="1.1" id="图层_1" xmlns="http://www.w3.org/2000/svg" xmlns:xlink="http://www.w3.org/1999/xlink" x="0px" y="0px"
	 viewBox="0 0 30 30" style="enable-background:new 0 0 30 30;" xml:space="preserve">
<style type="text/css">
	.st0{opacity:5.000000e-02;fill:#232F3E;enable-background:new    ;}
	.st1{fill:#3874F6;}
	.st2{fill:#FFFFFF;}
</style>
<path id="路径" class="st0" d="M0,15c0,8.3,6.7,15,15,15s15-6.7,15-15S23.3,0,15,0S0,6.7,0,15z"/>
<path id="形状" class="st1" d="M19.4,20.6v-9.8H9.6l0,0H8.2V22h11.2V20.6L19.4,20.6z M21.4,8H11v1.4h9.8v11.2h1.4V8H21.4z"/>
<path id="形状结合" class="st2" d="M14.6,13.3l2.2,6.1h-1.4L14.9,18h-2.2l-0.5,1.4h-1.4l2.2-6.1C13,13.3,14.6,13.3,14.6,13.3z
	 M13.8,14.4L13.8,14.4c-0.1,0.2-0.1,0.4-0.1,0.5l0,0L13,17h1.6l-0.7-2.1C13.8,14.8,13.8,14.6,13.8,14.4L13.8,14.4z"/>
</svg>
