<?xml version="1.0" encoding="utf-8"?>
<!-- Generator: Adobe Illustrator 25.4.1, SVG Export Plug-In . SVG Version: 6.00 Build 0)  -->
<svg version="1.1" id="图层_1" xmlns="http://www.w3.org/2000/svg" xmlns:xlink="http://www.w3.org/1999/xlink" x="0px" y="0px"
	 viewBox="0 0 30 30" style="enable-background:new 0 0 30 30;" xml:space="preserve">
<style type="text/css">
	.st0{opacity:5.000000e-02;fill:#232F3E;enable-background:new    ;}
	.st1{fill:#3874F6;}
	.st2{fill:#FFFFFF;}
</style>
<path id="路径" class="st0" d="M0,15c0,8.3,6.7,15,15,15s15-6.7,15-15S23.3,0,15,0S0,6.7,0,15z"/>
<g id="KHCFDC_佣金" transform="translate(7.181811, 7.001259)">
	<path id="路径_00000160165340423250733830000013893101548047364002_" class="st1" d="M10.9,4.1c0.2-0.2,0.4-0.4,0.6-0.7
		C12.2,2.3,12,1,11,0.4c-0.6-0.3-1.2-0.3-1.8,0.1c-0.9-0.8-2.4-0.8-3.4,0c-0.6-0.3-1.3-0.3-1.9,0C3,1,2.8,2.3,3.5,3.5
		C3.7,3.7,3.8,3.9,4,4.1c-2.2,1-4,4.2-4,7.1C0,13.8,1.6,15,4.7,15h5.6c3.1,0,4.7-1.2,4.7-3.8C15,8.3,13.2,5.2,10.9,4.1z"/>
</g>
<path id="路径_00000058586313107829346970000000084007080897882038_" class="st2" d="M16.6,15.9c0.3,0,0.5-0.2,0.5-0.5
	S16.9,15,16.6,15h-1.2l0.8-0.8c0.3-0.2,0.3-0.6,0.1-0.7c-0.1-0.2-0.4-0.2-0.6,0l-1,1l-1-1c-0.2-0.2-0.5-0.2-0.7,0
	c-0.2,0.1-0.2,0.5,0,0.7l0.9,0.8h-1c-0.4,0-0.5,0.2-0.5,0.4s0.2,0.5,0.5,0.5h1.3v0.9h-1.4c-0.3,0-0.5,0.2-0.5,0.5s0.2,0.5,0.5,0.5
	h1.4v1.4c0,0.3,0.2,0.5,0.5,0.5c0.3,0,0.5-0.2,0.5-0.5v-1.4h1.4c0.3,0,0.5-0.2,0.5-0.5c0-0.3-0.2-0.5-0.5-0.5h-1.4v-0.9H16.6z"/>
</svg>
