<?xml version="1.0" encoding="utf-8"?>
<!-- Generator: Adobe Illustrator 25.4.1, SVG Export Plug-In . SVG Version: 6.00 Build 0)  -->
<svg version="1.1" id="图层_1" xmlns="http://www.w3.org/2000/svg" xmlns:xlink="http://www.w3.org/1999/xlink" x="0px" y="0px"
	 viewBox="0 0 30 30" style="enable-background:new 0 0 30 30;" xml:space="preserve">
<style type="text/css">
	.st0{opacity:5.000000e-02;fill:#232F3E;enable-background:new    ;}
	.st1{fill-opacity:0;}
	.st2{fill:#3874F6;}
	.st3{fill:#FFFFFF;}
</style>
<path id="路径" class="st0" d="M0,15c0,8.3,6.7,15,15,15s15-6.7,15-15S23.3,0,15,0S0,6.7,0,15z"/>
<g id="充值" transform="translate(8.181811, 8.001259)">
	<rect id="矩形_00000177482068102605853390000015893890102943675576_" x="0" y="0" class="st1" width="14" height="14"/>
	<path id="形状" class="st2" d="M13,0H1C0.5,0,0,0.5,0,1v12c0,0.2,0.1,0.5,0.2,0.6L1,12.4L2,14l1-1.6L4,14l1-1.6L6,14l1-1.6L8,14
		l1-1.6l1,1.6l1-1.6l1,1.6l1-1.6l0.8,1.2c0.1-0.2,0.2-0.4,0.2-0.6V1C14,0.5,13.5,0,13,0z"/>
	<path id="形状结合" class="st3" d="M6.1,8.4C5.8,8.7,5.4,8.9,4.8,9v0.9c-0.1,0-0.3,0-0.4,0s-0.3,0-0.4,0V9.1H3.9
		c-0.2,0-0.4,0-0.6,0C3.1,9.1,3,9.1,2.8,9c0,0-0.2,0-0.3,0C2.3,8.9,2.2,8.9,2,8.8c0-0.2,0.1-0.3,0.1-0.5S2.2,8,2.3,7.8
		C2.6,8,2.8,8,3,8.1c0.2,0,0.5,0.1,0.7,0.1c0.4,0,0.7-0.1,0.9-0.2C4.9,7.8,5,7.7,5,7.4c0-0.1,0-0.2-0.1-0.3C4.9,7,4.8,7,4.7,6.9
		C4.6,6.8,4.5,6.8,4.4,6.8S4.2,6.7,4.1,6.7L3.6,6.5C3.4,6.4,3.2,6.3,3,6.2c-0.1,0-0.3-0.1-0.4-0.3C2.5,5.8,2.4,5.7,2.3,5.6
		C2.2,5.4,2.2,5.2,2.2,5c0-0.5,0.2-0.8,0.5-1.1S3.4,3.4,4,3.4V2.6c0.1,0,0.3,0,0.4,0s0.3,0,0.4,0v0.8c0.2,0,0.5,0,0.7,0.1
		c0.2,0,0.5,0.1,0.7,0.2c0,0.3-0.1,0.6-0.3,0.9c-0.1,0-0.2-0.1-0.3-0.1c-0.1,0-0.2-0.1-0.3-0.1c-0.1,0-0.2,0-0.4-0.1
		c-0.1,0-0.3,0-0.5,0c-0.1,0-0.2,0-0.3,0c-0.1,0-0.2,0-0.3,0.1c-0.1,0-0.2,0.1-0.2,0.2c0,0,0,0.1,0,0.3c0,0.1,0,0.2,0.1,0.3
		c0,0.1,0.1,0.1,0.2,0.2c0.1,0,0.2,0.1,0.3,0.1s0.2,0.1,0.3,0.1L5,5.7C5.2,5.8,5.4,5.9,5.6,6C5.8,6.1,6,6.2,6.1,6.3
		c0.1,0.1,0.2,0.3,0.3,0.4c0.1,0.2,0.1,0.4,0.1,0.6C6.5,7.8,6.4,8.1,6.1,8.4z M11.8,10.5H9c-0.3,0-0.5-0.2-0.5-0.5S8.7,9.5,9,9.5
		h2.8c0.3,0,0.5,0.2,0.5,0.5S12.1,10.5,11.8,10.5z M11.8,8.2H7.6C7.4,8.2,7.2,8,7.2,7.8c0-0.3,0.2-0.5,0.5-0.5h4.2
		c0.3,0,0.5,0.2,0.5,0.5C12.3,8,12.1,8.2,11.8,8.2z M11.8,5.9H7.6c-0.3,0-0.5-0.2-0.5-0.5C7.2,5.2,7.4,5,7.6,5h4.2
		c0.3,0,0.5,0.2,0.5,0.5C12.3,5.7,12.1,5.9,11.8,5.9z M11.8,3.6H7.6c-0.3,0-0.5-0.2-0.5-0.5s0.2-0.5,0.5-0.5h4.2
		c0.3,0,0.5,0.2,0.5,0.5C12.3,3.4,12.1,3.6,11.8,3.6z"/>
</g>
</svg>
