<?xml version="1.0" encoding="utf-8"?>
<!-- Generator: Adobe Illustrator 25.4.1, SVG Export Plug-In . SVG Version: 6.00 Build 0)  -->
<svg version="1.1" id="图层_1" xmlns="http://www.w3.org/2000/svg" xmlns:xlink="http://www.w3.org/1999/xlink" x="0px" y="0px"
	 viewBox="0 0 30 30" style="enable-background:new 0 0 30 30;" xml:space="preserve">
<style type="text/css">
	.st0{opacity:5.000000e-02;fill:#232F3E;enable-background:new    ;}
	.st1{fill-opacity:0;}
	.st2{fill:#3874F6;}
	.st3{fill:#FFFFFF;}
</style>
<path id="路径" class="st0" d="M0,15c0,8.3,6.7,15,15,15s15-6.7,15-15S23.3,0,15,0S0,6.7,0,15z"/>
<g id="提现" transform="translate(6.181811, 6.001259)">
	<rect id="矩形_00000085956799641582796390000018067912557557060000_" x="0" y="0" class="st1" width="18" height="18"/>
	<path id="形状" class="st2" d="M9.1,1.1c-4.4,0-8,3.6-8,8s3.6,8,8,8s8-3.6,8-8S13.6,1.1,9.1,1.1z"/>
	<path id="路径_00000029728913216523820790000004814242541357248931_" class="st3" d="M4.8,5.4c0-0.3,0.2-0.5,0.5-0.5H14
		c0.3,0,0.5,0.2,0.5,0.5v1c0,0.3-0.2,0.5-0.5,0.5H5.3C5,6.9,4.8,6.6,4.8,6.4V5.4z"/>
	<path id="路径_00000028292913508050842570000000670498807776427136_" class="st3" d="M3.4,8c0.1-0.3,0.5-0.5,0.5-0.5h8.2l0,0l0,0
		c-0.1,0-0.2,0.1-0.2,0.1c-0.2,0-0.4,0.3-0.4,0.3c-0.2,0.2-1.4,1.8-1.4,1.8H4C3.5,9.6,3.4,9.2,3.4,9.2V8z"/>
	<path id="路径_00000041274249429875393980000016940112216525380003_" class="st3" d="M11.1,12.5H4c0,0-0.4,0-0.5-0.5v-1.2
		c0,0,0.2-0.5,0.6-0.4h5.7c0,0-0.2,0.2-0.2,0.5v0.2c0,0,0,0.4,0.2,0.5c0,0,0.1,0.1,0.3,0.1h1.1L11.1,12.5L11.1,12.5z"/>
	<path id="路径_00000104670208609912864660000002865146803820708503_" class="st3" d="M14.4,11.1h-0.9c0,0-0.3,0.1-0.4,0.4v1.2
		c0,0,0,0.4-0.4,0.5h-0.6c0,0-0.3,0-0.3-0.5v-1.2c0,0,0-0.3-0.3-0.4h-0.8c0,0-0.3,0-0.2-0.3l0.2-0.3l1.4-2c0,0,0.2-0.3,0.4-0.4
		c0,0,0.3-0.1,0.5,0c0,0,0.1,0,0.2,0.2l1.5,2.4C14.5,10.8,14.7,11.1,14.4,11.1z"/>
</g>
</svg>
