<?xml version="1.0" encoding="utf-8"?>
<!-- Generator: Adobe Illustrator 25.4.1, SVG Export Plug-In . SVG Version: 6.00 Build 0)  -->
<svg version="1.1" id="图层_1" xmlns="http://www.w3.org/2000/svg" xmlns:xlink="http://www.w3.org/1999/xlink" x="0px" y="0px"
	 viewBox="0 0 30 30" style="enable-background:new 0 0 30 30;" xml:space="preserve">
<style type="text/css">
	.st0{fill:#333333;}
	.st1{fill:#3874F6;}
</style>
<g id="编组-7" transform="translate(3.166750, 1.333170)">
	<path id="形状" class="st0" d="M14.8,5.6l1.4-2l0-0.1c0-0.1,0.1-0.1,0.1-0.2c0.1-0.2,0.1-0.3,0.1-0.4c0,0,0,0-0.2-0.1
		c-0.6-0.3-1.5-0.4-2.5-0.5c-0.5,0-1.1-0.1-1.6-0.1h-0.1c-0.5,0-1.1,0-1.6,0.1c-1,0.1-1.9,0.3-2.5,0.5C7.7,2.9,7.7,2.9,7.7,2.9
		c0,0.1,0,0.2,0.1,0.4c0.1,0.1,0.1,0.2,0.1,0.2l0,0l1.4,2H14.8L14.8,5.6z M15.9,7.8H8.2l-2.1-3C6,4.7,5.9,4.5,5.8,4.3
		C5.5,3.8,5.4,3.3,5.4,2.7C5.5,1.8,6.1,1.1,7,0.7c0.9-0.4,2-0.6,3.2-0.7C10.8,0,11.5,0,12.1,0c0.6,0,1.2,0,1.8,0.1
		c1.2,0.1,2.3,0.3,3.2,0.7c0.9,0.4,1.5,1.1,1.6,1.9c0.1,0.6-0.1,1.1-0.3,1.6c-0.1,0.2-0.2,0.4-0.3,0.5L15.9,7.8L15.9,7.8z M9.3,8
		L9.3,8C8.9,8.2,8.6,8.3,8.3,8.5C7.4,9,6.6,9.6,5.8,10.3c-2.3,2.1-3.6,4.7-3.6,8.1c0,2.8,1.4,4.5,3.9,5.5c1.8,0.7,3.9,1,5.8,0.9h0.1
		c1.9,0.1,4-0.2,5.8-0.9c2.5-1,3.9-2.7,3.9-5.5c0-3.3-1.3-6-3.6-8.1c-0.8-0.7-1.6-1.3-2.5-1.8c-0.3-0.2-0.6-0.3-0.9-0.5H9.3L9.3,8z
		 M5.3,25.9C2,24.6,0,22.1,0,18.3c0-4,1.6-7.2,4.3-9.7c0.9-0.8,1.9-1.5,2.9-2.1C7.9,6.2,8.3,6,8.6,5.8l0.2-0.1h6.4l0.2,0.1
		c0.3,0.1,0.8,0.3,1.4,0.7c1.1,0.6,2,1.3,2.9,2.1c2.7,2.5,4.3,5.7,4.3,9.7c0,3.8-2,6.3-5.3,7.6C16.6,26.8,14.2,27,12,27
		C9.8,27,7.5,26.8,5.3,25.9L5.3,25.9z"/>
	<path id="形状结合" class="st1" d="M15.2,10.7c0.2,0,0.4,0.1,0.5,0.2c0.1,0.1,0.2,0.3,0.2,0.5c0,0.2-0.1,0.4-0.2,0.5l0,0l-2,2
		l3,0v1.6l-3.6,0v1.6l2.8,0c0.4,0,0.8,0.4,0.8,0.8c0,0.5-0.4,0.8-0.8,0.8l-2.8,0l0,4.1h-1.6l0-4.1l-2.7,0c-0.5,0-0.8-0.4-0.8-0.8h0
		c0-0.5,0.4-0.8,0.8-0.8l2.6,0v-1.6l-3.5,0v-1.6l2.9,0l-2-2c-0.2-0.3-0.3-0.6-0.1-0.9l0.1-0.1c0.3-0.3,0.7-0.3,1,0l0,0l2.3,2.3
		c0,0,0,0.1,0.1,0.1c0,0,0,0,0.1-0.1l0,0l2.3-2.3C14.9,10.7,15,10.7,15.2,10.7z"/>
</g>
</svg>
