<?xml version="1.0" encoding="utf-8"?>
<!-- Generator: Adobe Illustrator 25.4.1, SVG Export Plug-In . SVG Version: 6.00 Build 0)  -->
<svg version="1.1" id="图层_1" xmlns="http://www.w3.org/2000/svg" xmlns:xlink="http://www.w3.org/1999/xlink" x="0px" y="0px"
	 viewBox="0 0 100 100" style="enable-background:new 0 0 100 100;" xml:space="preserve">
<style type="text/css">
	.st0{fill:#FFFFFF;}
	.st1{fill:#3874F6;}
</style>
<g>
	<circle class="st0" cx="50" cy="50" r="50"/>
	<g>
		<path class="st1" d="M69.5,29.6c1,0,1.7,1,1.2,1.9c-0.7,1.2-1.4,2.5-2.1,3.7c-0.4,0.6-1.2,0.8-1.8,0.4c-0.6-0.4-0.9-1.2-0.5-1.8
			c0.7-1.2,1.4-2.4,2.1-3.6C68.7,29.8,69.1,29.6,69.5,29.6z"/>
		<path class="st1" d="M74.2,48.4c-0.9,0.1-1.5-0.4-1.6-1c-0.1-0.7,0.3-1.3,1.1-1.4c1.4-0.2,2.8-0.3,4.1-0.5
			c0.6-0.1,1.2,0.4,1.3,1.1c0.1,0.7-0.4,1.3-1,1.3C76.7,48.1,75.3,48.2,74.2,48.4z"/>
		<path class="st1" d="M34.6,69.1c0,2.8,2.9,4.9,5.9,3.4c1.2-0.6,1.9-1.9,1.9-3.2l0,0c0-1.9-1.3-3.7-3.2-4.1
			C36.7,64.8,34.6,66.7,34.6,69.1L34.6,69.1z"/>
		<path class="st1" d="M57.5,69.1c0,2.8,2.9,4.9,5.9,3.4c1.2-0.6,1.9-1.9,1.9-3.2l0,0c0-2.1-1.6-4-3.7-4.1
			C59.3,65.1,57.5,66.8,57.5,69.1L57.5,69.1z"/>
		<path class="st1" d="M68.2,40.1h-5.9H33.8l-3.2-9.8c-0.4-1.3-1.8-2-3-1.6l0,0c-1.3,0.4-2,1.8-1.5,3l6.7,20.5l0,0.2
			c0,0.1,0,0.2,0.1,0.2l0.1,0.2l0,0l0,0.1l1.4,4.4c0.1,0.3,0.3,0.6,0.5,0.8c1.6,2.7,5.4,4.7,9.2,4.7h12.3c4.3,0,8.6-2.6,9.8-5.9
			c0.8-2.5,1.4-4.1,1.4-4.2l0,0c0.1-0.2,0.1-0.4,0.2-0.5l0.3-1c0.3-0.9,0.7-2.1,1.1-3.4c1.6-5.1,1.6-5.1,1.6-5.5
			C70.7,41.6,70,40.1,68.2,40.1z M63.4,54.9c-0.9,2.7-4.5,4.9-8,4.9H45.2c-3.1,0-6.2-1.6-7.6-3.9c-0.2-0.2-0.3-0.4-0.4-0.7l-2.8-9.9
			c-0.3-1,0.4-2,1.4-2l28,0c1.5,0,2.1,1.2,2.1,2C65.9,45.6,64.1,52.8,63.4,54.9z"/>
		<path class="st1" d="M46,52.1c0,1-0.8,1.8-1.8,1.8c-1,0-1.8-0.8-1.8-1.8v-3.7c0-1,0.8-1.8,1.8-1.8c1,0,1.8,0.8,1.8,1.8V52.1z"/>
		<path class="st1" d="M58.6,52.1c0,1-0.8,1.8-1.8,1.8c-1,0-1.8-0.8-1.8-1.8v-3.7c0-1,0.8-1.8,1.8-1.8c1,0,1.8,0.8,1.8,1.8V52.1z"/>
	</g>
</g>
</svg>
