<?xml version="1.0" encoding="utf-8"?>
<!-- Generator: Adobe Illustrator 25.4.1, SVG Export Plug-In . SVG Version: 6.00 Build 0)  -->
<svg version="1.1" id="图层_1" xmlns="http://www.w3.org/2000/svg" xmlns:xlink="http://www.w3.org/1999/xlink" x="0px" y="0px"
	 viewBox="0 0 44 44" style="enable-background:new 0 0 44 44;" xml:space="preserve">
<style type="text/css">
	.st0{fill:#3874F6;}
	.st1{fill:#232F3E;}
</style>
<path class="st0" d="M31.8,20.4c-0.1,0.4-0.3,0.9-0.6,1.2l-8.6,8.6c-0.9,0.9-2.3,0.9-3.2,0c-0.9-0.9-0.9-2.3,0-3.2l4.9-4.9H13.2
	c-1.1,0-2-0.8-2.2-1.8c-0.2-0.7,0-1.5,0.6-2.1l8.6-8.6c0.9-0.9,2.3-0.9,3.2,0s0.9,2.3,0,3.2l-4.9,4.9h10.8c0.2,0,0.5,0,0.7,0
	c1,0.2,1.8,1.1,1.8,2.2C31.9,20.1,31.9,20.2,31.8,20.4z"/>
<path class="st1" d="M40,4.1H4v32l5.6,3c0.8,0.5,1.9,0.3,2.5-0.4l2.3-2.6H40V4.1z M44,0.1v40.5H15.3l-2.6,2.6
	c-0.5,0.5-1.1,0.7-1.7,0.7c-0.6,0-1-0.2-1.7-0.7l-4.5-2.8H0V0.1H44z"/>
</svg>
