<?xml version="1.0" encoding="utf-8"?>
<!-- Generator: Adobe Illustrator 25.4.1, SVG Export Plug-In . SVG Version: 6.00 Build 0)  -->
<svg version="1.1" id="图层_1" xmlns="http://www.w3.org/2000/svg" xmlns:xlink="http://www.w3.org/1999/xlink" x="0px" y="0px"
	 viewBox="0 0 30 30" style="enable-background:new 0 0 30 30;" xml:space="preserve">
<style type="text/css">
	.st0{opacity:5.000000e-02;fill:#232F3E;enable-background:new    ;}
	.st1{fill:#3874F6;}
	.st2{fill:#FFFFFF;}
</style>
<path id="路径" class="st0" d="M0,15c0,8.3,6.7,15,15,15s15-6.7,15-15S23.3,0,15,0S0,6.7,0,15z"/>
<g id="收货地址" transform="translate(7.181811, 7.001259)">
	<path id="形状" class="st1" d="M7.5,0C3.4,0,1.1,3.1,1.1,5.8c0,2.8,2.9,5.9,6.3,7.4h0.1h0.1c3.4-1.5,6.3-4.6,6.3-7.4
		C13.9,3.1,11.6,0,7.5,0z M3.8,14.4c0,0.3,1.7,0.6,3.7,0.6s3.7-0.3,3.7-0.6s-1.7-0.6-3.7-0.6S3.8,14.1,3.8,14.4L3.8,14.4z"/>
	<path id="路径_00000016766585494577048820000016955400131259318425_" class="st2" d="M7.5,7.7c-1.6,0-2.9-1.3-2.9-2.9
		S5.9,2,7.5,2s2.9,1.3,2.9,2.9S9.1,7.7,7.5,7.7z"/>
</g>
</svg>
