<?xml version="1.0" encoding="utf-8"?>
<!-- Generator: Adobe Illustrator 25.4.1, SVG Export Plug-In . SVG Version: 6.00 Build 0)  -->
<svg version="1.1" id="图层_1" xmlns="http://www.w3.org/2000/svg" xmlns:xlink="http://www.w3.org/1999/xlink" x="0px" y="0px"
	 viewBox="0 0 30 30" style="enable-background:new 0 0 30 30;" xml:space="preserve">
<style type="text/css">
	.st0{opacity:5.000000e-02;fill:#232F3E;enable-background:new    ;}
	.st1{fill:#3874F6;}
</style>
<path id="路径" class="st0" d="M0,15c0,8.3,6.7,15,15,15s15-6.7,15-15S23.3,0,15,0S0,6.7,0,15z"/>
<g id="钱包" transform="translate(7.181811, 7.001259)">
	<path id="形状" class="st1" d="M13.3,12v0.7c0,0.8-0.6,1.4-1.4,1.4H2.3c-0.8,0-1.4-0.6-1.4-1.4V3.1c0-0.8,0.6-1.4,1.4-1.4h9.6
		c0.8,0,1.4,0.6,1.4,1.4v0.7H7.1c-0.8,0-1.4,0.6-1.4,1.4v5.5c0,0.8,0.6,1.4,1.4,1.4L13.3,12L13.3,12z"/>
	<path id="形状结合" class="st1" d="M14,5.2v5.5H7.1V5.2H14z M9.9,6.9c-0.6,0-1,0.5-1,1s0.5,1,1,1s1-0.5,1-1S10.4,6.9,9.9,6.9z"
		/>
</g>
</svg>
