<?xml version="1.0" encoding="utf-8"?>
<!-- Generator: Adobe Illustrator 25.4.1, SVG Export Plug-In . SVG Version: 6.00 Build 0)  -->
<svg version="1.1" id="图层_1" xmlns="http://www.w3.org/2000/svg" xmlns:xlink="http://www.w3.org/1999/xlink" x="0px" y="0px"
	 viewBox="0 0 14 14" style="enable-background:new 0 0 14 14;" xml:space="preserve">
<style type="text/css">
	.st0{fill:#FBBB6A;}
</style>
<path id="形状" class="st0" d="M10.4,2.7C10.7,2.7,11,2.4,11,2V0.7C11,0.3,10.7,0,10.4,0C10,0,9.7,0.3,9.7,0.7V2
	C9.7,2.4,10,2.7,10.4,2.7L10.4,2.7z M3.6,2.7C4,2.7,4.3,2.4,4.3,2V0.7C4.3,0.3,4,0,3.6,0C3.3,0,3,0.3,3,0.7V2C3,2.4,3.3,2.7,3.6,2.7
	L3.6,2.7z"/>
<path id="形状_00000160188623329990485920000003353825081808553151_" class="st0" d="M12.8,1.3h-1.1V2c0,0.7-0.6,1.3-1.3,1.3
	S9,2.7,9,2V1.3H8.3c0,0-0.6,0-1.3,0s-1.3,0-1.3,0H5V2c0,0.7-0.6,1.3-1.3,1.3C2.9,3.3,2.3,2.7,2.3,2V1.3H1.2C0.8,1.3,0.5,1.6,0.5,2
	v11.3c0,0.4,0.3,0.7,0.7,0.7h11.7c0.4,0,0.7-0.3,0.7-0.7V2C13.5,1.6,13.2,1.3,12.8,1.3L12.8,1.3z M9.9,11.8H4.1
	c-0.3,0-0.5-0.2-0.5-0.5c0-0.3,0.2-0.5,0.5-0.5h5.8c0.3,0,0.5,0.2,0.5,0.5C10.4,11.6,10.2,11.8,9.9,11.8z M9.9,9.3H4.1
	C3.8,9.3,3.6,9,3.6,8.8c0-0.3,0.2-0.5,0.5-0.5h5.8c0.3,0,0.5,0.2,0.5,0.5C10.4,9,10.2,9.3,9.9,9.3z M9.9,6.7H4.1
	c-0.3,0-0.5-0.2-0.5-0.5c0-0.3,0.2-0.5,0.5-0.5h5.8c0.3,0,0.5,0.2,0.5,0.5C10.4,6.5,10.2,6.7,9.9,6.7z"/>
</svg>
