<?xml version="1.0" encoding="utf-8"?>
<!-- Generator: Adobe Illustrator 25.4.1, SVG Export Plug-In . SVG Version: 6.00 Build 0)  -->
<svg version="1.1" id="图层_1" xmlns="http://www.w3.org/2000/svg" xmlns:xlink="http://www.w3.org/1999/xlink" x="0px" y="0px"
	 viewBox="0 0 20 20" style="enable-background:new 0 0 20 20;" xml:space="preserve">
<style type="text/css">
	.st0{fill:#3874F6;}
</style>
<path id="形状" class="st0" d="M8.2,15.2l1.5-1.5h0.2c2.8,0,4.9-1.1,6.5-3.3c-0.5-0.7-1.1-1.2-1.7-1.8L16,7.5
	c0.9,0.8,1.7,1.8,2.3,2.8c-1.9,3.3-4.8,4.9-8.3,4.9C9.4,15.3,8.8,15.2,8.2,15.2L8.2,15.2z M3.6,12.8c-0.7-0.7-1.3-1.5-1.9-2.5
	C3.6,7,6.4,5.4,10,5.4h0.9L9.2,7.1c-2.5,0.2-4.4,1.2-5.8,3.2c0.3,0.5,0.7,1,1.2,1.3L3.6,12.8z M14.8,4.2l1.2,1.2L5.4,15.8l-1.2-1.2
	L14.8,4.2z"/>
</svg>
