<?xml version="1.0" encoding="utf-8"?>
<!-- Generator: Adobe Illustrator 25.4.1, SVG Export Plug-In . SVG Version: 6.00 Build 0)  -->
<svg version="1.1" id="图层_1" xmlns="http://www.w3.org/2000/svg" xmlns:xlink="http://www.w3.org/1999/xlink" x="0px" y="0px"
	 viewBox="0 0 20 20" style="enable-background:new 0 0 20 20;" xml:space="preserve">
<style type="text/css">
	.st0{fill:#3874F6;}
</style>
<path id="形状" class="st0" d="M10,5c-3.3,0-6.4,2.1-7.5,5c1.1,2.9,4.2,5,7.5,5c3.3,0,6.5-2.1,7.5-5C16.4,7.1,13.3,5,10,5z
	 M10,13.1c-1.7,0-3.1-1.4-3.1-3.1S8.3,6.9,10,6.9s3.1,1.4,3.1,3.1S11.7,13.1,10,13.1z M11.9,10c0,1-0.8,1.9-1.9,1.9S8.1,11,8.1,10
	S9,8.1,10,8.1S11.9,9,11.9,10z"/>
</svg>
