<?xml version="1.0" encoding="utf-8"?>
<!-- Generator: Adobe Illustrator 25.4.1, SVG Export Plug-In . SVG Version: 6.00 Build 0)  -->
<svg version="1.1" id="图层_1" xmlns="http://www.w3.org/2000/svg" xmlns:xlink="http://www.w3.org/1999/xlink" x="0px" y="0px"
	 viewBox="0 0 30 30" style="enable-background:new 0 0 30 30;" xml:space="preserve">
<style type="text/css">
	.st0{fill:#232F3E;}
</style>
<path id="形状" class="st0" d="M18.7,4.5c1.3-1.1,3.2-1.1,4.5,0.2c1.1,1.1,1.3,2.8,0.4,4.1l1.5,0c0.7,0,1.3,0.6,1.4,1.3l0,0.1v4.7
	c0,0.7-0.6,1.3-1.3,1.4l-0.1,0h-0.5v8c0,0.7-0.6,1.3-1.3,1.4l-0.1,0h-16c-0.7,0-1.3-0.6-1.4-1.3l0-0.1v-8H5.4
	c-0.7,0-1.3-0.6-1.4-1.3l0-0.1v-4.7c0-0.7,0.6-1.3,1.3-1.4l0.1,0h1.5c-0.8-1.3-0.7-3,0.4-4.1c1.2-1.2,3.2-1.3,4.5-0.2L12,4.7
	l3.3,3.3l3.3-3.3L18.7,4.5L18.7,4.5z M14.3,16.3H7.8v7.5h6.6V16.3L14.3,16.3z M22.8,16.3h-6.6v7.5h6.6V16.3z M14.3,10.7H5.9v3.8h8.5
	V10.7L14.3,10.7z M24.7,10.7h-8.5v3.8h8.5V10.7L24.7,10.7z M21.8,6c-0.5-0.5-1.3-0.6-1.9-0.1L19.9,6L17,8.8h4L21.9,8l0.1-0.1
	C22.4,7.3,22.3,6.5,21.8,6L21.8,6z M8.7,6C8.2,6.5,8.2,7.3,8.6,7.9L8.7,8l0.8,0.8h4L10.7,6C10.2,5.5,9.3,5.5,8.7,6L8.7,6z"/>
</svg>
