<?xml version="1.0" encoding="utf-8"?>
<!-- Generator: Adobe Illustrator 25.4.1, SVG Export Plug-In . SVG Version: 6.00 Build 0)  -->
<svg version="1.1" id="图层_1" xmlns="http://www.w3.org/2000/svg" xmlns:xlink="http://www.w3.org/1999/xlink" x="0px" y="0px"
	 viewBox="0 0 30 30" style="enable-background:new 0 0 30 30;" xml:space="preserve">
<style type="text/css">
	.st0{fill:#232F3E;}
	.st1{fill:#3874F6;}
</style>
<g id="编组-3" transform="translate(2.000234, 2.000234)">
	<path id="形状" class="st0" d="M7.9,25c-1.5-0.7-2.9-1.6-4.1-2.8C2.6,21,1.7,19.6,1,18.1c-0.7-1.6-1-3.3-1-5.1s0.3-3.5,1-5.1
		C1.7,6.4,2.6,5,3.8,3.8S6.4,1.7,7.9,1c1.6-0.7,3.3-1,5.1-1c1.5,0,3,0.3,4.4,0.8l-0.7,1.9C15.6,2.3,14.3,2,13,2C7,2,2,7,2,13
		s5,11,11,11s11-5,11-11c0-1.3-0.2-2.6-0.7-3.8c0-0.1,1.9-0.7,1.9-0.7c0.5,1.5,0.8,3,0.8,4.5c0,1.8-0.3,3.5-1,5.1
		c-0.7,1.5-1.6,2.9-2.8,4.1c-1.2,1.2-2.6,2.1-4.1,2.8c-1.6,0.7-3.3,1-5.1,1S9.5,25.7,7.9,25z"/>
	<path id="路径" class="st1" d="M22.5,2.6V0h-1.7v2.6h-2.6v1.7h2.6V7h1.7V4.4h2.6V2.7h-2.6V2.6z"/>
	<path id="形状_00000006690188949792351950000005455010086155732411_" class="st0" d="M10.6,16.3l-1.1,1.2
		c0.4,0.4,0.9,0.8,1.5,1.1c0.6,0.3,1.1,0.4,1.7,0.4v1.8h0.8V19c0.9-0.1,1.6-0.5,2.1-1.1s0.8-1.4,0.8-2.3c0-1.8-0.9-2.9-2.9-3.4V8.8
		c0.7,0.1,1.2,0.3,1.7,0.8l0.9-1.2c-0.8-0.7-1.7-1.1-2.7-1.1V6.1h-0.8v1.1C11,7.5,10.1,8.6,10,10.6c0,1.7,0.9,2.8,2.7,3.3v3.6
		c-0.5-0.1-0.9-0.2-1.2-0.4C11.2,16.9,10.9,16.6,10.6,16.3z M12.8,12.1c-0.4-0.1-0.7-0.3-0.9-0.6c-0.2-0.2-0.3-0.6-0.3-0.9
		c0-0.3,0-0.5,0.1-0.7s0.1-0.4,0.2-0.5c0.2-0.3,0.5-0.4,0.8-0.5L12.8,12.1L12.8,12.1z M13.6,14c0.5,0.1,0.8,0.3,1,0.6s0.3,0.6,0.3,1
		c0,0.5-0.1,0.9-0.3,1.2c-0.2,0.3-0.5,0.6-1,0.7V14z"/>
</g>
</svg>
