<?xml version="1.0" encoding="utf-8"?>
<!-- Generator: Adobe Illustrator 25.4.1, SVG Export Plug-In . SVG Version: 6.00 Build 0)  -->
<svg version="1.1" id="图层_1" xmlns="http://www.w3.org/2000/svg" xmlns:xlink="http://www.w3.org/1999/xlink" x="0px" y="0px"
	 viewBox="0 0 30 30" style="enable-background:new 0 0 30 30;" xml:space="preserve">
<style type="text/css">
	.st0{fill:#232F3E;}
	.st1{fill:#3874F6;}
</style>
<g id="编组-4" transform="translate(2.323529, 2.323529)">
	<path id="形状" class="st0" d="M24.6,9.5c0.3,1,0.4,2.1,0.4,3.2c0,6.9-5.6,12.5-12.5,12.5S0,19.6,0,12.7S5.6,0.2,12.5,0.2
		c1.1,0,2.2,0.1,3.2,0.4h8.9C24.6,0.6,24.6,9.5,24.6,9.5z M15.1,3L15.1,3c-0.9-0.2-1.7-0.3-2.6-0.3C6.9,2.6,2.4,7.1,2.4,12.7
		s4.5,10.1,10.1,10.1s10.1-4.5,10.1-10.1c0-0.9-0.1-1.8-0.3-2.6l0,0l-0.1-7L15.1,3z"/>
	<path id="路径" class="st1" d="M6,12.7h2.3c0,1.2,1.5,3.1,2.5,3.7s2.2,0.6,3.2,0s2.5-2.6,2.5-3.7H19c0,3.6-2.9,6.5-6.5,6.5
		S6,16.2,6,12.7z"/>
</g>
</svg>
